<svg width="96" height="96" viewBox="0 0 96 96" fill="none" xmlns="http://www.w3.org/2000/svg">
<rect width="96" height="96" fill="#00838E"/>
<path d="M69.4194 47.3575C69.1618 47.1796 68.8645 47.1203 68.5673 47.1994C65.1987 48.0692 61.7904 48.7017 58.3424 49.1169C57.8669 46.4679 57.312 43.7597 57.312 43.7597C57.312 43.7597 59.7493 44.4318 62.2857 42.1782C63.4351 41.1502 63.9503 39.3711 64.1484 37.7106C68.2106 37.5524 71.4406 34.2313 71.4406 30.159C71.4406 25.9682 68.0521 22.5878 63.8512 22.5878C59.6503 22.5878 56.2618 25.9682 56.2618 30.159C56.2618 33.1243 57.9659 35.6942 60.4627 36.9198C60.3042 39.4106 59.6503 39.549 59.3332 39.7467C58.9171 40.0234 58.0254 40.2211 53.3489 40.0432C48.6724 39.8653 43.5005 40.2804 41.301 40.2804C34.5636 40.2804 34.9005 37.0977 34.9005 37.0977V34.5081H42.054C48.9498 34.5476 54.5775 29.0125 54.6171 22.1331C54.6567 15.2735 49.1083 9.67905 42.2125 9.61974C42.153 9.61974 42.0936 9.61974 42.054 9.61974C42.054 9.61974 36.248 9.59998 35.0788 9.59998C35.0392 9.59998 34.9996 9.59998 34.96 9.59998C34.9005 9.59998 34.8807 9.59998 34.8807 9.59998H31.9876H31.9083L26.0033 9.61974C19.1074 9.58021 13.4798 15.1153 13.4402 21.9947C13.4005 28.8741 18.9489 34.4883 25.8448 34.5278C25.9042 34.5278 25.9636 34.5278 26.0033 34.5278H31.0959C31.0959 35.6546 31.1355 37.0187 31.195 38.2443C31.3337 41.0712 33.3747 42.8108 35.3761 43.5817C37.3775 44.3527 41.0037 44.0364 42.4701 43.9376C43.9364 43.8387 47.3051 43.6608 50.1586 43.7794C53.012 43.8783 54.4387 44.3329 54.5378 49.3541C54.5378 49.3936 54.5378 49.4332 54.5378 49.4925C46.2747 50.0658 37.9521 49.3146 29.8871 47.2191C29.5899 47.14 29.2729 47.1994 29.0351 47.3773C28.7973 47.5552 28.6388 47.8319 28.6189 48.1285C28.4208 52.6752 30.1051 57.3207 33.7512 60.8988C37.4171 64.5164 42.9655 66.7502 48.7318 66.77C49.0687 66.77 49.3858 66.77 49.7226 66.77C55.489 66.7502 61.0374 64.5164 64.7033 60.8988C68.3493 57.3207 70.0337 52.6752 69.8355 48.1285C69.8157 47.8122 69.6572 47.5354 69.4194 47.3575ZM59.7493 30.159C59.7493 27.9055 61.5922 26.067 63.8512 26.067C66.1102 26.067 67.953 27.9055 67.953 30.159C67.953 32.4126 66.1102 34.2511 63.8512 34.2511C61.5922 34.2511 59.7493 32.4324 59.7493 30.159ZM30.5609 22.311C30.5609 18.1399 33.9494 14.7595 38.1305 14.7595C42.3116 14.7595 45.7 18.1399 45.7 22.311C45.7 26.4821 42.3116 29.8625 38.1305 29.8625C33.9494 29.8428 30.5609 26.4624 30.5609 22.311Z" fill="white"/>
<path d="M61.4138 75.468C61.5525 75.6657 61.8498 76.0215 61.8498 76.575C61.8498 77.4251 61.2751 77.8797 60.5221 77.8797C60.0267 77.8797 59.5512 77.6821 59.0954 77.1879C58.6198 76.6936 58.1442 76.496 57.629 76.496C56.876 76.496 56.4005 76.8716 56.4005 77.4251C56.4005 77.6623 56.4401 78.1367 57.4507 78.4135L58.8972 78.8089C60.7005 79.3624 62.3452 80.2519 62.3452 82.4067C62.3452 85.0952 59.8682 86.3406 57.4111 86.3406C55.2313 86.3406 54.0424 85.4115 53.3687 84.7196C53.23 84.5812 52.6355 83.8893 52.6355 83.0788C52.6355 82.5055 52.9922 81.7741 53.9631 81.7741C54.6567 81.7741 55.053 82.209 55.3701 82.5648C56.0834 83.3753 56.7572 83.5335 57.4111 83.5335C58.4613 83.5335 58.9171 83.0591 58.9171 82.5846C58.9171 82.3474 58.818 81.8334 57.7083 81.4974L56.4797 81.1217C54.0622 80.4299 53.0318 79.1252 53.0318 77.4251C53.0318 74.9343 55.3106 73.7482 57.5498 73.7482C59.0558 73.7877 60.6212 74.3808 61.4138 75.468Z" fill="white"/>
<path d="M24.8936 73.7679C23.8037 73.7679 22.7733 74.0447 21.8816 74.5389V70.5852C21.8816 69.7945 21.2475 69.1619 20.4549 69.1619H19.9991C19.2065 69.1619 18.5724 69.7945 18.5724 70.5852V84.9568C18.5724 85.7475 19.2065 86.3801 19.9991 86.3801H20.4549C21.0295 86.3801 21.5249 86.044 21.7627 85.5498C22.694 86.0836 23.7641 86.3801 24.9134 86.3801C28.401 86.3801 31.2346 83.5532 31.2346 80.074C31.2346 76.5948 28.3811 73.7679 24.8936 73.7679ZM24.8936 83.3951C23.0507 83.3951 21.5646 81.9125 21.5646 80.074C21.5646 78.2355 23.0507 76.7529 24.8936 76.7529C26.7364 76.7529 28.2226 78.2355 28.2226 80.074C28.2028 81.9125 26.7166 83.3951 24.8936 83.3951Z" fill="white"/>
<path d="M74.3733 73.5308H73.9175C73.2636 73.5308 72.7087 73.9657 72.5502 74.5785C71.6387 74.0645 70.5885 73.7878 69.4788 73.7878C65.9912 73.7878 63.1576 76.6146 63.1576 80.0939C63.1576 83.5731 65.9912 86.4 69.4788 86.4C70.6281 86.4 71.6981 86.1034 72.6295 85.5697C72.8475 86.0639 73.3627 86.4 73.9373 86.4H74.3931C75.1857 86.4 75.8198 85.7674 75.8198 84.9766V74.9739C75.8 74.1634 75.1659 73.5308 74.3733 73.5308ZM69.4788 83.3952C67.6359 83.3952 66.1498 81.9125 66.1498 80.0741C66.1498 78.2356 67.6359 76.753 69.4788 76.753C71.3216 76.753 72.8078 78.2356 72.8078 80.0741C72.788 81.9125 71.3018 83.3952 69.4788 83.3952Z" fill="white"/>
<path d="M79.6442 73.511V72.5819C80.4764 72.3447 81.0907 71.5935 81.0907 70.6841C81.0907 69.5969 80.2188 68.7271 79.129 68.7271C78.0391 68.7271 77.1672 69.5969 77.1672 70.6841C77.1672 71.5935 77.7815 72.3447 78.6138 72.5819V73.511C77.9797 73.6494 77.4843 74.2226 77.4843 74.8948V84.8975C77.4843 85.6883 78.1184 86.3209 78.911 86.3209H79.3668C80.1594 86.3209 80.7935 85.6883 80.7935 84.8975V74.8948C80.7737 74.2226 80.2783 73.6494 79.6442 73.511Z" fill="white"/>
<path d="M50.8719 73.2937H50.0396V71.9297C50.0396 71.1389 49.4055 70.5063 48.6129 70.5063H48.1571C47.3645 70.5063 46.7304 71.1389 46.7304 71.9297V73.2937H45.8982C45.1055 73.2937 44.4714 73.9263 44.4714 74.717V75.1717C44.4714 75.9624 45.1055 76.595 45.8982 76.595H46.7304V84.9372C46.7304 85.728 47.3645 86.3605 48.1571 86.3605H48.6129C49.4055 86.3605 50.0396 85.728 50.0396 84.9372V76.595H50.8719C51.6645 76.595 52.2986 75.9624 52.2986 75.1717V74.717C52.3184 73.946 51.6645 73.2937 50.8719 73.2937Z" fill="white"/>
<path d="M38.6258 73.7679C37.853 73.7679 37.1199 73.9062 36.4461 74.1632C36.4065 74.0842 36.3867 73.9853 36.3272 73.8865C36.3272 73.8667 36.3074 73.8667 36.3074 73.8469C36.3074 73.8272 36.2876 73.8272 36.2876 73.8074C36.1885 73.6097 36.0498 73.412 35.8516 73.1748C36.3074 72.6608 36.4659 71.9492 36.248 71.2573C35.8913 70.2293 34.7816 69.6758 33.7512 70.0316C32.7208 70.3875 32.1659 71.4945 32.5226 72.5225C32.8595 73.5109 33.9097 74.0644 34.9005 73.7876C35.0392 73.9458 35.3563 74.3214 35.4553 74.6574C33.5927 75.7447 32.3245 77.7808 32.3245 80.0937C32.3245 83.573 35.1581 86.3998 38.6457 86.3998C42.1332 86.3998 44.9669 83.573 44.9669 80.0937C44.9669 76.6145 42.1134 73.7679 38.6258 73.7679ZM38.6258 83.395C36.783 83.395 35.2968 81.9124 35.2968 80.074C35.2968 78.2355 36.783 76.7529 38.6258 76.7529C40.4687 76.7529 41.9549 78.2355 41.9549 80.074C41.9549 81.9124 40.4687 83.395 38.6258 83.395Z" fill="white"/>
<path d="M82.3193 85.4314C82.3193 85.4907 82.2797 85.5104 82.2202 85.5104H81.9824V86.2221C81.9824 86.2616 81.9626 86.2814 81.9428 86.3012C81.923 86.3209 81.9032 86.3209 81.8636 86.3209C81.8239 86.3209 81.8041 86.3209 81.7843 86.3012C81.7645 86.2814 81.7447 86.2616 81.7447 86.2221V85.5104H81.5267C81.4672 85.5104 81.4276 85.4907 81.4276 85.4314C81.4276 85.3721 81.4672 85.3325 81.5267 85.3325H82.2004C82.2797 85.3325 82.3193 85.3721 82.3193 85.4314ZM83.3894 85.3523C83.4092 85.3721 83.4092 85.3918 83.4092 85.4314V86.2221C83.4092 86.2616 83.4092 86.2814 83.3894 86.3012C83.3695 86.3209 83.3497 86.3209 83.3299 86.3209C83.3101 86.3209 83.2903 86.3209 83.2705 86.3012C83.2506 86.2814 83.2506 86.2616 83.2506 86.2221V85.7279L83.0525 86.1035C83.0327 86.1232 83.0327 86.143 83.0129 86.1628C82.993 86.1825 82.9732 86.1826 82.9534 86.1826C82.9336 86.1826 82.9138 86.1825 82.894 86.1628C82.8741 86.143 82.8741 86.143 82.8543 86.1035L82.6562 85.7279V86.2221C82.6562 86.2616 82.6562 86.2814 82.6364 86.3012C82.6165 86.3209 82.5967 86.3209 82.5769 86.3209C82.5571 86.3209 82.5373 86.3209 82.5175 86.3012C82.4977 86.2814 82.4977 86.2616 82.4977 86.2221V85.4314C82.4977 85.3918 82.5175 85.3721 82.5373 85.3523C82.5571 85.3325 82.5769 85.3325 82.6165 85.3325C82.6562 85.3325 82.6958 85.3523 82.7156 85.4116L83.0129 85.9651L83.3101 85.4116C83.3299 85.3721 83.3695 85.3325 83.4092 85.3325C83.3497 85.3325 83.3695 85.3325 83.3894 85.3523Z" fill="white"/>
</svg>
